<?xml version="1.0" encoding="UTF-8"?>
<svg id="Layer_2" data-name="Layer 2" xmlns="http://www.w3.org/2000/svg" width="335.25" height="206.77" viewBox="0 0 335.25 206.77">
  <defs>
    <style>
      .cls-1 {
        fill: none;
        stroke: #fff;
        stroke-miterlimit: 10;
        stroke-width: .5px;
      }
    </style>
  </defs>
  <g id="Layer_2-2" data-name="Layer 2">
    <line class="cls-1" y1="188.41" x2="335.25" y2="188.41"/>
    <line class="cls-1" y1="176.37" x2="335.25" y2="176.37"/>
    <line class="cls-1" y1="164.33" x2="335.25" y2="164.33"/>
    <line class="cls-1" y1="152.3" x2="335.25" y2="152.3"/>
    <line class="cls-1" y1="140.26" x2="335.25" y2="140.26"/>
    <line class="cls-1" y1="128.22" x2="335.25" y2="128.22"/>
    <line class="cls-1" y1="116.19" x2="335.25" y2="116.19"/>
    <line class="cls-1" y1="104.15" x2="335.25" y2="104.15"/>
    <line class="cls-1" y1="92.11" x2="335.25" y2="92.11"/>
    <line class="cls-1" y1="80.07" x2="335.25" y2="80.07"/>
    <line class="cls-1" y1="68.04" x2="335.25" y2="68.04"/>
    <line class="cls-1" y1="56" x2="335.25" y2="56"/>
    <line class="cls-1" y1="43.96" x2="335.25" y2="43.96"/>
    <line class="cls-1" y1="31.92" x2="335.25" y2="31.92"/>
    <line class="cls-1" y1="19.89" x2="335.25" y2="19.89"/>
    <line class="cls-1" x1="179.94" y1="0" x2="179.94" y2="206.77"/>
    <line class="cls-1" x1="167.9" y1="0" x2="167.9" y2="206.77"/>
    <line class="cls-1" x1="155.86" y1="0" x2="155.86" y2="206.77"/>
    <line class="cls-1" x1="143.83" y1="0" x2="143.83" y2="206.77"/>
    <line class="cls-1" x1="131.79" y1="0" x2="131.79" y2="206.77"/>
    <line class="cls-1" x1="119.75" y1="0" x2="119.75" y2="206.77"/>
    <line class="cls-1" x1="107.71" y1="0" x2="107.71" y2="206.77"/>
    <line class="cls-1" x1="95.68" y1="0" x2="95.68" y2="206.77"/>
    <line class="cls-1" x1="83.64" y1="0" x2="83.64" y2="206.77"/>
    <line class="cls-1" x1="71.6" y1="0" x2="71.6" y2="206.77"/>
    <line class="cls-1" x1="59.56" y1="0" x2="59.56" y2="206.77"/>
    <line class="cls-1" x1="47.53" y1="0" x2="47.53" y2="206.77"/>
    <line class="cls-1" x1="35.49" y1="0" x2="35.49" y2="206.77"/>
    <line class="cls-1" x1="23.45" y1="0" x2="23.45" y2="206.77"/>
    <line class="cls-1" x1="11.42" y1="0" x2="11.42" y2="206.77"/>
    <line class="cls-1" x1="264.2" y1="0" x2="264.2" y2="206.77"/>
    <line class="cls-1" x1="252.16" y1="0" x2="252.16" y2="206.77"/>
    <line class="cls-1" x1="240.12" y1="0" x2="240.12" y2="206.77"/>
    <line class="cls-1" x1="228.09" y1="0" x2="228.09" y2="206.77"/>
    <line class="cls-1" x1="216.05" y1="0" x2="216.05" y2="206.77"/>
    <line class="cls-1" x1="204.01" y1="0" x2="204.01" y2="206.77"/>
    <line class="cls-1" x1="191.97" y1="0" x2="191.97" y2="206.77"/>
    <line class="cls-1" x1="312.35" y1="0" x2="312.35" y2="206.77"/>
    <line class="cls-1" x1="300.31" y1="0" x2="300.31" y2="206.77"/>
    <line class="cls-1" x1="288.27" y1="0" x2="288.27" y2="206.77"/>
    <line class="cls-1" x1="276.24" y1="0" x2="276.24" y2="206.77"/>
    <line class="cls-1" x1="324.38" x2="324.38" y2="206.77"/>
  </g>
</svg>