<?xml version="1.0" encoding="UTF-8"?>
<svg id="Layer_2" data-name="Layer 2" xmlns="http://www.w3.org/2000/svg" width="275.62" height="206.96" viewBox="0 0 275.62 206.96">
  <defs>
    <style>
      .cls-1 {
        fill: none;
        stroke: #d9d3ce;
        stroke-miterlimit: 10;
        stroke-width: .5px;
      }
    </style>
  </defs>
  <g id="Layer_2-2" data-name="Layer 2">
    <line class="cls-1" y1="187.74" x2="275.62" y2="187.74"/>
    <line class="cls-1" y1="175.7" x2="275.62" y2="175.7"/>
    <line class="cls-1" y1="163.66" x2="275.62" y2="163.66"/>
    <line class="cls-1" y1="151.63" x2="275.62" y2="151.63"/>
    <line class="cls-1" y1="139.59" x2="275.62" y2="139.59"/>
    <line class="cls-1" y1="127.55" x2="275.62" y2="127.55"/>
    <line class="cls-1" y1="115.52" x2="275.62" y2="115.52"/>
    <line class="cls-1" y1="103.48" x2="275.62" y2="103.48"/>
    <line class="cls-1" y1="91.44" x2="275.62" y2="91.44"/>
    <line class="cls-1" y1="79.4" x2="275.62" y2="79.4"/>
    <line class="cls-1" y1="67.37" x2="275.62" y2="67.37"/>
    <line class="cls-1" y1="55.33" x2="275.62" y2="55.33"/>
    <line class="cls-1" y1="43.29" x2="275.62" y2="43.29"/>
    <line class="cls-1" y1="31.25" x2="275.62" y2="31.25"/>
    <line class="cls-1" y1="19.22" x2="275.62" y2="19.22"/>
    <line class="cls-1" x1="179.94" x2="179.94" y2="206.96"/>
    <line class="cls-1" x1="167.9" x2="167.9" y2="206.96"/>
    <line class="cls-1" x1="155.86" x2="155.86" y2="206.96"/>
    <line class="cls-1" x1="143.83" x2="143.83" y2="206.96"/>
    <line class="cls-1" x1="131.79" x2="131.79" y2="206.96"/>
    <line class="cls-1" x1="119.75" x2="119.75" y2="206.96"/>
    <line class="cls-1" x1="107.71" x2="107.71" y2="206.96"/>
    <line class="cls-1" x1="95.68" x2="95.68" y2="206.96"/>
    <line class="cls-1" x1="83.64" x2="83.64" y2="206.96"/>
    <line class="cls-1" x1="71.6" x2="71.6" y2="206.96"/>
    <line class="cls-1" x1="59.56" x2="59.56" y2="206.96"/>
    <line class="cls-1" x1="47.53" x2="47.53" y2="206.96"/>
    <line class="cls-1" x1="35.49" x2="35.49" y2="206.96"/>
    <line class="cls-1" x1="23.45" x2="23.45" y2="206.96"/>
    <line class="cls-1" x1="11.42" x2="11.42" y2="206.96"/>
    <line class="cls-1" x1="264.2" x2="264.2" y2="206.96"/>
    <line class="cls-1" x1="252.16" x2="252.16" y2="206.96"/>
    <line class="cls-1" x1="240.12" x2="240.12" y2="206.96"/>
    <line class="cls-1" x1="228.09" x2="228.09" y2="206.96"/>
    <line class="cls-1" x1="216.05" x2="216.05" y2="206.96"/>
    <line class="cls-1" x1="204.01" x2="204.01" y2="206.96"/>
    <line class="cls-1" x1="191.97" x2="191.97" y2="206.96"/>
  </g>
</svg>