<?xml version="1.0" encoding="UTF-8"?>
<svg id="Layer_2" data-name="Layer 2" xmlns="http://www.w3.org/2000/svg" width="1713.67" height="1899.23" viewBox="0 0 1713.67 1899.23">
  <defs>
    <style>
      .cls-1 {
        fill: #6b645c;
        stroke-width: 0px;
      }
    </style>
  </defs>
  <g id="Layer_2-2" data-name="Layer 2">
    <path class="cls-1" d="m1680.72,744.93l-6.9-2.47c-79.13-15.45-203.02,51.02-234.04,107.56l-140.73,176.12c-.19.13-29.25,19.25-71.54,4.43-38.36-13.42-55.71-106.35-63.18-169.47l-34.63-666.37c-4.49-55.77-52.23-97.49-107.24-94.45-55.01,3.04-98.32,49.63-96.35,105.6l-3.23,607.87c-6.2,6.14-13.67,10.07-22.79,9.69-9.24-.38-19.5-5.07-30.7-11.52l-103.82-719.29c-8.99-58.37-59.26-98.76-112.56-91.86-53.3,6.9-91.67,58.75-85.46,117.49l63.37,734.93c-3.99,3.16-7.98,5.44-12.03,6.65-10.51,3.04-20.01,4.18-28.87,4.31l-174.66-582.8c-14.18-49.63-64.38-78.75-113.19-66.85-48.62,12.09-79.51,61.34-68.62,111.74l131.17,603.57c-5.76,4.49-11.59,8.35-17.6,10.63-10.45,3.93-22.6,5.57-35.96,6.97l-113.95-222.46c-35.58-76.41-90.02-145.98-154.97-122.12-64.89,23.93-41.59,129.97-18.11,193.78l90.72,211.89,37.29,111.67c32.54,108.7,100.15,327.55,159.47,470.88,78.12,188.84,161.88,281.02,331.54,302.54,179.41,22.79,371.29-26.21,478.85-93.95,16.27-7.66,34.19-22.35,52.29-40.96,2.03-2.02,4.05-4.11,5.89-6.14,50.46-54.06,101.04-136.74,120.54-187.07,0,0,92.43-188.34,176.82-354.2,84.39-165.93,197.01-325.01,197.01-325.01,31.08-56.66,66.79-108,6.2-141.3Z"/>
  </g>
</svg>